<?xml version="1.0" encoding="UTF-8" standalone="no"?><svg xmlns="http://www.w3.org/2000/svg" xmlns:xlink="http://www.w3.org/1999/xlink" contentStyleType="text/css" height="1098px" preserveAspectRatio="none" style="width:568px;height:1098px;background:#FFFFFF;" version="1.1" viewBox="0 0 568 1098" width="568px" zoomAndPan="magnify"><defs/><g><ellipse cx="271.5" cy="20" fill="#222222" rx="10" ry="10" style="stroke:#222222;stroke-width:1.0;"/><rect fill="#98FB98" height="50.1875" rx="12.5" ry="12.5" style="stroke:#181818;stroke-width:0.5;" width="292" x="125.5" y="50"/><text fill="#000000" font-family="sans-serif" font-size="12" lengthAdjust="spacing" textLength="135" x="135.5" y="72.457">vbResult = MessageBox:</text><text fill="#000000" font-family="sans-serif" font-size="12" lengthAdjust="spacing" textLength="260" x="147.5" y="87.5508">"Would you like to install sheets and modules?"</text><polygon fill="#F1F1F1" points="235,120.1875,308,120.1875,320,132.1875,308,144.1875,235,144.1875,223,132.1875,235,120.1875" style="stroke:#181818;stroke-width:0.5;"/><text fill="#000000" font-family="sans-serif" font-size="11" lengthAdjust="spacing" textLength="18" x="275.5" y="155.6064">yes</text><text fill="#000000" font-family="sans-serif" font-size="11" lengthAdjust="spacing" textLength="73" x="235" y="136.6885">vbResult = No?</text><text fill="#000000" font-family="sans-serif" font-size="11" lengthAdjust="spacing" textLength="12" x="320" y="129.7705">no</text><ellipse cx="354" cy="132.1875" fill="none" rx="11" ry="11" style="stroke:#222222;stroke-width:1.0;"/><ellipse cx="354" cy="132.1875" fill="#222222" rx="6" ry="6" style="stroke:#111111;stroke-width:1.0;"/><rect fill="#98FB98" height="110.5625" rx="12.5" ry="12.5" style="stroke:#181818;stroke-width:0.5;" width="521" x="11" y="226.0244"/><text fill="#000000" font-family="sans-serif" font-size="12" lengthAdjust="spacing" textLength="437" x="21" y="248.4814">vbResult = MessageBox: "VBA is not in trusted mode. You have two possibilities:</text><text fill="#000000" font-family="sans-serif" font-size="12" lengthAdjust="spacing" textLength="310" x="33" y="263.5752">1: Exit Excel without saving and switch trusted mode "On"</text><text fill="#000000" font-family="sans-serif" font-size="12" lengthAdjust="spacing" textLength="477" x="45" y="278.6689">(File &gt; Options &gt; Trust Center &gt; Trust Center Settings &gt; Macro Settings &gt; Trust Access...</text><text fill="#000000" font-family="sans-serif" font-size="12" lengthAdjust="spacing" textLength="132" x="45" y="293.7627">and run the script again.</text><text fill="#000000" font-family="sans-serif" font-size="12" lengthAdjust="spacing" textLength="304" x="33" y="308.8564">2: Install sheets and afterwards add modules manually.</text><text fill="#000000" font-family="sans-serif" font-size="12" lengthAdjust="spacing" textLength="223" x="21" y="323.9502">Would you like to proceed with option 2?"</text><polygon fill="#F1F1F1" points="235,356.5869,308,356.5869,320,368.5869,308,380.5869,235,380.5869,223,368.5869,235,356.5869" style="stroke:#181818;stroke-width:0.5;"/><text fill="#000000" font-family="sans-serif" font-size="11" lengthAdjust="spacing" textLength="40" x="275.5" y="392.0059">Option 2</text><text fill="#000000" font-family="sans-serif" font-size="11" lengthAdjust="spacing" textLength="73" x="235" y="373.0879">vbResult = No?</text><text fill="#000000" font-family="sans-serif" font-size="11" lengthAdjust="spacing" textLength="40" x="320" y="366.1699">Option 1</text><ellipse cx="382" cy="368.5869" fill="none" rx="11" ry="11" style="stroke:#222222;stroke-width:1.0;"/><ellipse cx="382" cy="368.5869" fill="#222222" rx="6" ry="6" style="stroke:#111111;stroke-width:1.0;"/><polygon fill="#F1F1F1" points="204,177.1064,339,177.1064,351,189.1064,339,201.1064,204,201.1064,192,189.1064,204,177.1064" style="stroke:#181818;stroke-width:0.5;"/><text fill="#000000" font-family="sans-serif" font-size="11" lengthAdjust="spacing" textLength="19" x="275.5" y="212.5254">true</text><text fill="#000000" font-family="sans-serif" font-size="11" lengthAdjust="spacing" textLength="135" x="204" y="193.6074">VBA is not in trusted mode?</text><text fill="#000000" font-family="sans-serif" font-size="11" lengthAdjust="spacing" textLength="24" x="351" y="186.6895">false</text><polygon fill="#F1F1F1" points="271.5,413.5059,283.5,425.5059,271.5,437.5059,259.5,425.5059,271.5,413.5059" style="stroke:#181818;stroke-width:0.5;"/><rect fill="#F1F1F1" height="35.0938" rx="12.5" ry="12.5" style="stroke:#181818;stroke-width:0.5;" width="137" x="203" y="457.5059"/><text fill="#000000" font-family="sans-serif" font-size="12" lengthAdjust="spacing" textLength="117" x="213" y="479.9629">ReadXml("main.xml")</text><rect fill="#98FB98" height="35.0938" rx="12.5" ry="12.5" style="stroke:#181818;stroke-width:0.5;" width="370" x="86.5" y="512.5996"/><text fill="#000000" font-family="sans-serif" font-size="12" lengthAdjust="spacing" textLength="347" x="99.5" y="535.0566">MessageBox: "Following sheets will be created: + list of sheets"</text><rect fill="#F1F1F1" height="35.0938" rx="12.5" ry="12.5" style="stroke:#181818;stroke-width:0.5;" width="152" x="195.5" y="611.6934"/><text fill="#000000" font-family="sans-serif" font-size="12" lengthAdjust="spacing" textLength="132" x="205.5" y="634.1504">ReadSheet(sheet[i].xml)</text><rect fill="#F1F1F1" height="35.0938" rx="12.5" ry="12.5" style="stroke:#181818;stroke-width:0.5;" width="174" x="184.5" y="666.7871"/><text fill="#000000" font-family="sans-serif" font-size="12" lengthAdjust="spacing" textLength="154" x="194.5" y="689.2441">CreateSheet(sheet[i].Name)</text><line style="stroke:#181818;stroke-width:1.5;" x1="196.5" x2="335.5" y1="721.8809" y2="721.8809"/><rect fill="#F1F1F1" height="35.0938" rx="12.5" ry="12.5" style="stroke:#181818;stroke-width:0.5;" width="93" x="150" y="743.3809"/><text fill="#000000" font-family="sans-serif" font-size="12" lengthAdjust="spacing" textLength="73" x="160" y="765.8379">ReadShapes</text><rect fill="#F1F1F1" height="35.0938" rx="12.5" ry="12.5" style="stroke:#181818;stroke-width:0.5;" width="100" x="146.5" y="798.4746"/><text fill="#000000" font-family="sans-serif" font-size="12" lengthAdjust="spacing" textLength="80" x="156.5" y="820.9316">CreateShapes</text><rect fill="#F1F1F1" height="35.0938" rx="12.5" ry="12.5" style="stroke:#181818;stroke-width:0.5;" width="79" x="296" y="743.3809"/><text fill="#000000" font-family="sans-serif" font-size="12" lengthAdjust="spacing" textLength="59" x="306" y="765.8379">ReadCells</text><rect fill="#F1F1F1" height="35.0938" rx="12.5" ry="12.5" style="stroke:#181818;stroke-width:0.5;" width="122" x="274.5" y="798.4746"/><text fill="#000000" font-family="sans-serif" font-size="12" lengthAdjust="spacing" textLength="102" x="284.5" y="820.9316">AddValuesToCells</text><line style="stroke:#181818;stroke-width:1.5;" x1="196.5" x2="335.5" y1="853.5684" y2="853.5684"/><polygon fill="#F1F1F1" points="271.5,567.6934,283.5,579.6934,271.5,591.6934,259.5,579.6934,271.5,567.6934" style="stroke:#181818;stroke-width:0.5;"/><polygon fill="#F1F1F1" points="238.5,873.5684,304.5,873.5684,316.5,885.5684,304.5,897.5684,238.5,897.5684,226.5,885.5684,238.5,873.5684" style="stroke:#181818;stroke-width:0.5;"/><text fill="#000000" font-family="sans-serif" font-size="11" lengthAdjust="spacing" textLength="66" x="238.5" y="890.0693">more sheets?</text><rect fill="#F1F1F1" height="35.0938" rx="12.5" ry="12.5" style="stroke:#181818;stroke-width:0.5;" width="88" x="227.5" y="966.4863"/><text fill="#000000" font-family="sans-serif" font-size="12" lengthAdjust="spacing" textLength="68" x="237.5" y="988.9434">AddModules</text><polygon fill="#F1F1F1" points="213,917.5684,330,917.5684,342,929.5684,330,941.5684,213,941.5684,201,929.5684,213,917.5684" style="stroke:#181818;stroke-width:0.5;"/><text fill="#000000" font-family="sans-serif" font-size="11" lengthAdjust="spacing" textLength="19" x="275.5" y="952.9873">true</text><text fill="#000000" font-family="sans-serif" font-size="11" lengthAdjust="spacing" textLength="117" x="213" y="934.0693">VBA is in trusted mode?</text><polygon fill="#F1F1F1" points="271.5,1021.5801,283.5,1033.5801,271.5,1045.5801,259.5,1033.5801,271.5,1021.5801" style="stroke:#181818;stroke-width:0.5;"/><ellipse cx="271.5" cy="1076.5801" fill="none" rx="11" ry="11" style="stroke:#222222;stroke-width:1.0;"/><ellipse cx="271.5" cy="1076.5801" fill="#222222" rx="6" ry="6" style="stroke:#111111;stroke-width:1.0;"/><line style="stroke:#181818;stroke-width:1.0;" x1="271.5" x2="271.5" y1="30" y2="50"/><polygon fill="#181818" points="267.5,40,271.5,50,275.5,40,271.5,44" style="stroke:#181818;stroke-width:1.0;"/><line style="stroke:#181818;stroke-width:1.0;" x1="271.5" x2="271.5" y1="144.1875" y2="177.1064"/><polygon fill="#181818" points="267.5,167.1064,271.5,177.1064,275.5,167.1064,271.5,171.1064" style="stroke:#181818;stroke-width:1.0;"/><line style="stroke:#181818;stroke-width:1.0;" x1="320" x2="343" y1="132.1875" y2="132.1875"/><polygon fill="#181818" points="333,128.1875,343,132.1875,333,136.1875,337,132.1875" style="stroke:#181818;stroke-width:1.0;"/><line style="stroke:#181818;stroke-width:1.0;" x1="271.5" x2="271.5" y1="100.1875" y2="120.1875"/><polygon fill="#181818" points="267.5,110.1875,271.5,120.1875,275.5,110.1875,271.5,114.1875" style="stroke:#181818;stroke-width:1.0;"/><line style="stroke:#181818;stroke-width:1.0;" x1="271.5" x2="271.5" y1="380.5869" y2="413.5059"/><polygon fill="#181818" points="267.5,403.5059,271.5,413.5059,275.5,403.5059,271.5,407.5059" style="stroke:#181818;stroke-width:1.0;"/><line style="stroke:#181818;stroke-width:1.0;" x1="320" x2="371" y1="368.5869" y2="368.5869"/><polygon fill="#181818" points="361,364.5869,371,368.5869,361,372.5869,365,368.5869" style="stroke:#181818;stroke-width:1.0;"/><line style="stroke:#181818;stroke-width:1.0;" x1="271.5" x2="271.5" y1="336.5869" y2="356.5869"/><polygon fill="#181818" points="267.5,346.5869,271.5,356.5869,275.5,346.5869,271.5,350.5869" style="stroke:#181818;stroke-width:1.0;"/><line style="stroke:#181818;stroke-width:1.0;" x1="271.5" x2="271.5" y1="201.1064" y2="226.0244"/><polygon fill="#181818" points="267.5,216.0244,271.5,226.0244,275.5,216.0244,271.5,220.0244" style="stroke:#181818;stroke-width:1.0;"/><line style="stroke:#181818;stroke-width:1.0;" x1="351" x2="542" y1="189.1064" y2="189.1064"/><polygon fill="#181818" points="538,325.7236,542,335.7236,546,325.7236,542,329.7236" style="stroke:#181818;stroke-width:1.0;"/><line style="stroke:#181818;stroke-width:1.0;" x1="542" x2="542" y1="189.1064" y2="425.5059"/><line style="stroke:#181818;stroke-width:1.0;" x1="542" x2="283.5" y1="425.5059" y2="425.5059"/><polygon fill="#181818" points="293.5,421.5059,283.5,425.5059,293.5,429.5059,289.5,425.5059" style="stroke:#181818;stroke-width:1.0;"/><line style="stroke:#181818;stroke-width:1.0;" x1="271.5" x2="271.5" y1="437.5059" y2="457.5059"/><polygon fill="#181818" points="267.5,447.5059,271.5,457.5059,275.5,447.5059,271.5,451.5059" style="stroke:#181818;stroke-width:1.0;"/><line style="stroke:#181818;stroke-width:1.0;" x1="271.5" x2="271.5" y1="492.5996" y2="512.5996"/><polygon fill="#181818" points="267.5,502.5996,271.5,512.5996,275.5,502.5996,271.5,506.5996" style="stroke:#181818;stroke-width:1.0;"/><line style="stroke:#181818;stroke-width:1.0;" x1="271.5" x2="271.5" y1="646.7871" y2="666.7871"/><polygon fill="#181818" points="267.5,656.7871,271.5,666.7871,275.5,656.7871,271.5,660.7871" style="stroke:#181818;stroke-width:1.0;"/><line style="stroke:#181818;stroke-width:1.0;" x1="196.5" x2="196.5" y1="778.4746" y2="798.4746"/><polygon fill="#181818" points="192.5,788.4746,196.5,798.4746,200.5,788.4746,196.5,792.4746" style="stroke:#181818;stroke-width:1.0;"/><line style="stroke:#181818;stroke-width:1.0;" x1="335.5" x2="335.5" y1="778.4746" y2="798.4746"/><polygon fill="#181818" points="331.5,788.4746,335.5,798.4746,339.5,788.4746,335.5,792.4746" style="stroke:#181818;stroke-width:1.0;"/><line style="stroke:#181818;stroke-width:1.0;" x1="196.5" x2="196.5" y1="723.3809" y2="743.3809"/><polygon fill="#181818" points="192.5,733.3809,196.5,743.3809,200.5,733.3809,196.5,737.3809" style="stroke:#181818;stroke-width:1.0;"/><line style="stroke:#181818;stroke-width:1.0;" x1="335.5" x2="335.5" y1="723.3809" y2="743.3809"/><polygon fill="#181818" points="331.5,733.3809,335.5,743.3809,339.5,733.3809,335.5,737.3809" style="stroke:#181818;stroke-width:1.0;"/><line style="stroke:#181818;stroke-width:1.0;" x1="196.5" x2="196.5" y1="833.5684" y2="853.5684"/><polygon fill="#181818" points="192.5,843.5684,196.5,853.5684,200.5,843.5684,196.5,847.5684" style="stroke:#181818;stroke-width:1.0;"/><line style="stroke:#181818;stroke-width:1.0;" x1="335.5" x2="335.5" y1="833.5684" y2="853.5684"/><polygon fill="#181818" points="331.5,843.5684,335.5,853.5684,339.5,843.5684,335.5,847.5684" style="stroke:#181818;stroke-width:1.0;"/><line style="stroke:#181818;stroke-width:1.0;" x1="271.5" x2="271.5" y1="701.8809" y2="721.8809"/><polygon fill="#181818" points="267.5,711.8809,271.5,721.8809,275.5,711.8809,271.5,715.8809" style="stroke:#181818;stroke-width:1.0;"/><line style="stroke:#181818;stroke-width:1.0;" x1="271.5" x2="271.5" y1="591.6934" y2="611.6934"/><polygon fill="#181818" points="267.5,601.6934,271.5,611.6934,275.5,601.6934,271.5,605.6934" style="stroke:#181818;stroke-width:1.0;"/><line style="stroke:#181818;stroke-width:1.0;" x1="316.5" x2="422.5" y1="885.5684" y2="885.5684"/><polygon fill="#181818" points="418.5,735.8809,422.5,725.8809,426.5,735.8809,422.5,731.8809" style="stroke:#181818;stroke-width:1.0;"/><line style="stroke:#181818;stroke-width:1.0;" x1="422.5" x2="422.5" y1="579.6934" y2="885.5684"/><line style="stroke:#181818;stroke-width:1.0;" x1="422.5" x2="283.5" y1="579.6934" y2="579.6934"/><polygon fill="#181818" points="293.5,575.6934,283.5,579.6934,293.5,583.6934,289.5,579.6934" style="stroke:#181818;stroke-width:1.0;"/><line style="stroke:#181818;stroke-width:1.0;" x1="271.5" x2="271.5" y1="855.0684" y2="873.5684"/><polygon fill="#181818" points="267.5,863.5684,271.5,873.5684,275.5,863.5684,271.5,867.5684" style="stroke:#181818;stroke-width:1.0;"/><line style="stroke:#181818;stroke-width:1.0;" x1="271.5" x2="271.5" y1="547.6934" y2="567.6934"/><polygon fill="#181818" points="267.5,557.6934,271.5,567.6934,275.5,557.6934,271.5,561.6934" style="stroke:#181818;stroke-width:1.0;"/><line style="stroke:#181818;stroke-width:1.0;" x1="271.5" x2="271.5" y1="941.5684" y2="966.4863"/><polygon fill="#181818" points="267.5,956.4863,271.5,966.4863,275.5,956.4863,271.5,960.4863" style="stroke:#181818;stroke-width:1.0;"/><line style="stroke:#181818;stroke-width:1.0;" x1="342" x2="354" y1="929.5684" y2="929.5684"/><polygon fill="#181818" points="350,974.0332,354,984.0332,358,974.0332,354,978.0332" style="stroke:#181818;stroke-width:1.0;"/><line style="stroke:#181818;stroke-width:1.0;" x1="354" x2="354" y1="929.5684" y2="1033.5801"/><line style="stroke:#181818;stroke-width:1.0;" x1="354" x2="283.5" y1="1033.5801" y2="1033.5801"/><polygon fill="#181818" points="293.5,1029.5801,283.5,1033.5801,293.5,1037.5801,289.5,1033.5801" style="stroke:#181818;stroke-width:1.0;"/><line style="stroke:#181818;stroke-width:1.0;" x1="271.5" x2="271.5" y1="1001.5801" y2="1021.5801"/><polygon fill="#181818" points="267.5,1011.5801,271.5,1021.5801,275.5,1011.5801,271.5,1015.5801" style="stroke:#181818;stroke-width:1.0;"/><line style="stroke:#181818;stroke-width:1.0;" x1="271.5" x2="271.5" y1="897.5684" y2="917.5684"/><polygon fill="#181818" points="267.5,907.5684,271.5,917.5684,275.5,907.5684,271.5,911.5684" style="stroke:#181818;stroke-width:1.0;"/><line style="stroke:#181818;stroke-width:1.0;" x1="271.5" x2="271.5" y1="1045.5801" y2="1065.5801"/><polygon fill="#181818" points="267.5,1055.5801,271.5,1065.5801,275.5,1055.5801,271.5,1059.5801" style="stroke:#181818;stroke-width:1.0;"/><!--SRC=[XLF1Rjim3BtxAmZlOcD0WEReO0lIO0LsI0kqHRUXs46nwLYOB1cY72T_Fqfo4gT5KHqIctnyr2EVoGdhaY-TKBYpYBhORn-HUkNW6soGIEpmrXmAI81F-ilqgeAZwK79VmZEWDJaX5903Q8Z4Bg2rbIzGbgcYqJMa4q8xyqo1zUWXaoRF52ICrs2YX2o8rAUeAva7UfURbSW2RHnt0ISxSbX8CSp2GSnqdmk8FsORmP_M54ZzgneCD0P8hcLIZg9L0HwVsuA-76GZdzAL318rvZU0OczrBkWcpXMDbVCa3xezCpWJtOd5S9tUEYSD9huwTdZOOtQeNtx-eJECRs7RKHfpJGGWQkoP96psUogYx-ExRKV4r1fPUT0x8JK5zIyW9_lLoTgxZe8M_5hTTuaj4BtZ3p6ylScwAmfaINxeO09oc3kz-_X7tiWpW1kylEjWXlyGtJ429X7GBH6pDI2_qvkIOf75DNlLcLfwqKUMfNcYwcfhvrmPvGoWr_RA7sGF8OjGcbHyEeA-ChIUBYc7X4i9R7OSJRS9FHxyfaiv5_bNzyqZuABTQ1vaxyNBOu0wjXRPyqZcUYG5fVWYUCI3bLnZTUrQrHgMhgggXUXUgHdCqcXTsXe78N0q7WdPgsnEAfSvidqo_lyg_EjDj4ZYzCk_0h_0m00]--></g></svg>