<?xml version="1.0" encoding="UTF-8" standalone="no"?><svg xmlns="http://www.w3.org/2000/svg" xmlns:xlink="http://www.w3.org/1999/xlink" contentStyleType="text/css" height="378px" preserveAspectRatio="none" style="width:1009px;height:378px;background:#FFFFFF;" version="1.1" viewBox="0 0 1009 378" width="1009px" zoomAndPan="magnify"><defs/><g><!--cluster Installer--><g id="cluster_Installer"><path d="M8.5,128.5662 L66.5,128.5662 A3.75,3.75 0 0 1 69,131.0662 L76,152.1756 L415.5,152.1756 A2.5,2.5 0 0 1 418,154.6756 L418,369.0662 A2.5,2.5 0 0 1 415.5,371.5662 L8.5,371.5662 A2.5,2.5 0 0 1 6,369.0662 L6,131.0662 A2.5,2.5 0 0 1 8.5,128.5662 " fill="none" style="stroke:#000000;stroke-width:1.5;"/><line style="stroke:#000000;stroke-width:1.5;" x1="6" x2="76" y1="152.1756" y2="152.1756"/><text fill="#000000" font-family="sans-serif" font-size="14" font-weight="bold" lengthAdjust="spacing" textLength="57" x="10" y="145.0994">Installer</text></g><!--cluster ChangedTable--><g id="cluster_ChangedTable"><path d="M460.5,128.5662 L562.5,128.5662 A3.75,3.75 0 0 1 565,131.0662 L572,152.1756 L999.5,152.1756 A2.5,2.5 0 0 1 1002,154.6756 L1002,242.0662 A2.5,2.5 0 0 1 999.5,244.5662 L460.5,244.5662 A2.5,2.5 0 0 1 458,242.0662 L458,131.0662 A2.5,2.5 0 0 1 460.5,128.5662 " fill="none" style="stroke:#000000;stroke-width:1.5;"/><line style="stroke:#000000;stroke-width:1.5;" x1="458" x2="572" y1="152.1756" y2="152.1756"/><text fill="#000000" font-family="sans-serif" font-size="14" font-weight="bold" lengthAdjust="spacing" textLength="101" x="462" y="145.0994">ChangedTable</text></g><!--entity Table1--><g id="elem_Table1"><rect fill="#F1F1F1" height="47.6094" rx="2.5" ry="2.5" style="stroke:#181818;stroke-width:0.5;" width="76" x="49" y="172.5662"/><rect fill="#F1F1F1" height="10" style="stroke:#181818;stroke-width:0.5;" width="15" x="105" y="177.5662"/><rect fill="#F1F1F1" height="2" style="stroke:#181818;stroke-width:0.5;" width="4" x="103" y="179.5662"/><rect fill="#F1F1F1" height="2" style="stroke:#181818;stroke-width:0.5;" width="4" x="103" y="183.5662"/><text fill="#000000" font-family="sans-serif" font-size="14" lengthAdjust="spacing" textLength="36" x="64" y="207.0994">Table</text></g><!--entity Classes1--><g id="elem_Classes1"><rect fill="#F1F1F1" height="47.6094" rx="2.5" ry="2.5" style="stroke:#181818;stroke-width:0.5;" width="234" x="160" y="172.5662"/><rect fill="#F1F1F1" height="10" style="stroke:#181818;stroke-width:0.5;" width="15" x="374" y="177.5662"/><rect fill="#F1F1F1" height="2" style="stroke:#181818;stroke-width:0.5;" width="4" x="372" y="179.5662"/><rect fill="#F1F1F1" height="2" style="stroke:#181818;stroke-width:0.5;" width="4" x="372" y="183.5662"/><text fill="#000000" font-family="sans-serif" font-size="14" lengthAdjust="spacing" textLength="194" x="175" y="207.0994">Classes, modules, user frames</text></g><!--entity XMLs1--><g id="elem_XMLs1"><rect fill="#F1F1F1" height="47.6094" rx="2.5" ry="2.5" style="stroke:#181818;stroke-width:0.5;" width="207" x="49.5" y="299.5662"/><rect fill="#F1F1F1" height="10" style="stroke:#181818;stroke-width:0.5;" width="15" x="236.5" y="304.5662"/><rect fill="#F1F1F1" height="2" style="stroke:#181818;stroke-width:0.5;" width="4" x="234.5" y="306.5662"/><rect fill="#F1F1F1" height="2" style="stroke:#181818;stroke-width:0.5;" width="4" x="234.5" y="310.5662"/><text fill="#000000" font-family="sans-serif" font-size="14" lengthAdjust="spacing" textLength="167" x="64.5" y="334.0994">XMLs describing all sheets</text></g><!--entity UC2--><g id="elem_UC2"><rect fill="#F1F1F1" height="47.6094" rx="2.5" ry="2.5" style="stroke:#181818;stroke-width:0.5;" width="234" x="744" y="172.5662"/><rect fill="#F1F1F1" height="10" style="stroke:#181818;stroke-width:0.5;" width="15" x="958" y="177.5662"/><rect fill="#F1F1F1" height="2" style="stroke:#181818;stroke-width:0.5;" width="4" x="956" y="179.5662"/><rect fill="#F1F1F1" height="2" style="stroke:#181818;stroke-width:0.5;" width="4" x="956" y="183.5662"/><text fill="#000000" font-family="sans-serif" font-size="14" lengthAdjust="spacing" textLength="194" x="759" y="207.0994">Classes, modules, user frames</text></g><!--entity UC3--><g id="elem_UC3"><rect fill="#F1F1F1" height="47.6094" rx="2.5" ry="2.5" style="stroke:#181818;stroke-width:0.5;" width="207" x="501.5" y="172.5662"/><rect fill="#F1F1F1" height="10" style="stroke:#181818;stroke-width:0.5;" width="15" x="688.5" y="177.5662"/><rect fill="#F1F1F1" height="2" style="stroke:#181818;stroke-width:0.5;" width="4" x="686.5" y="179.5662"/><rect fill="#F1F1F1" height="2" style="stroke:#181818;stroke-width:0.5;" width="4" x="686.5" y="183.5662"/><text fill="#000000" font-family="sans-serif" font-size="14" lengthAdjust="spacing" textLength="167" x="516.5" y="207.0994">XMLs describing all sheets</text></g><!--entity GitHub--><g id="elem_GitHub"><path d="M210.9392,18.1816 C214.2663,10.4921 219.0385,8.3146 225.7486,14.5956 C229.0219,7.656 235.8381,6 240.3156,13.3697 C245.1678,7.3223 250.2251,7.5757 254.1542,14.3649 C260.2867,7.7746 267.5898,9.3948 269.6778,18.3927 C279.6581,18.1067 283.3635,25.3354 279.0153,33.7573 C282.6635,42.6511 279.4461,50.7069 268.276,49.4776 C266.3561,57.0122 261.1706,58.0085 255.268,53.9442 C253.9134,62.6151 246.5948,64.9052 240.5067,58.6142 C234.5156,65.2773 227.1414,63.204 225.1422,54.5975 C219.2627,58.3299 213.7964,57.6085 212.3468,49.72 C202.4078,50.171 197.005,43.2355 201.1341,33.7865 C195.9086,23.5391 201.0745,18.9474 210.9392,18.1816 " fill="#F1F1F1" style="stroke:#181818;stroke-width:0.5;"/><text fill="#000000" font-family="sans-serif" font-size="14" lengthAdjust="spacing" textLength="43" x="217.5" y="38.0994">GitHub</text></g><!--link GitHub to Installer--><g id="link_GitHub_Installer"><path d="M202.18,37.2562 C155.7,43.9362 76.56,62.3762 33,112.5662 C29.9963,116.0275 27.4414,119.8675 25.2708,123.9437 C24.7281,124.9628 24.2095,125.9966 23.7138,127.043 C23.5899,127.3046 23.4675,127.567 23.3464,127.8301 C23.2859,127.9617 23.2257,128.0934 23.1659,128.2254 " fill="none" id="GitHub-to-Installer" style="stroke:#181818;stroke-width:1.0;"/><polygon fill="#181818" points="23.1659,128.2254,30.5253,121.6802,25.2305,123.6715,23.2392,118.3768,23.1659,128.2254" style="stroke:#181818;stroke-width:1.0;"/><text fill="#000000" font-family="sans-serif" font-size="13" lengthAdjust="spacing" textLength="31" x="61" y="101.0613">clone</text></g><!--reverse link GitHub to ChangedTable--><g id="link_GitHub_ChangedTable"><path d="M280.48,45.6362 C317.5,57.9462 371.62,79.9162 410,112.5662 C426.415,126.5362 440.0675,146.4462 449.7825,163.2637 C452.2113,167.4681 454.3939,171.4792 456.3121,175.1559 C456.7917,176.075 457.2547,176.9733 457.7009,177.8485 C457.7567,177.9579 457.8122,178.0669 457.8674,178.1756 " fill="none" id="GitHub-backto-ChangedTable" style="stroke:#000000;stroke-width:1.0;stroke-dasharray:1.0,3.0;"/><polygon fill="#000000" points="275.6,44.0362,282.9091,50.6375,280.3519,45.5916,285.3978,43.0345,275.6,44.0362" style="stroke:#000000;stroke-width:1.0;"/><text fill="#000000" font-family="sans-serif" font-size="13" lengthAdjust="spacing" textLength="122" x="399" y="101.0613">commit / pull request</text></g><!--SRC=[bO-zRW8n48HxFyL8QNE985s8qbmHaA03ALAKOi_U75RsREArAyIxv-xu4PHKEzBCjxDh9HQ73v_dfJ77WQfwno9e9X5EU8ML6FXilbKLwYs5bjsQ6c4yD4BsToO-y9EBERCRaDXrFkCPkoA2n7-5DPjT7wIMhvRl3L2KBIdZQzpt3LACQdBjrKAgh8_eeYioYDvA-4dKiOxCAN53VQwM2iTgaszyQD6NGhVC-OWCziGSBdVT_BM_htvJJ-zetjGlvl0F]--></g></svg>